<?xml version="1.0" encoding="utf-8"?>
<!-- Generator: Adobe Illustrator 24.0.0, SVG Export Plug-In . SVG Version: 6.00 Build 0)  -->
<svg version="1.1" id="Layer_1_xA0_Image_1_" xmlns="http://www.w3.org/2000/svg" xmlns:xlink="http://www.w3.org/1999/xlink"
	 x="0px" y="0px" viewBox="0 0 1085 703" style="enable-background:new 0 0 1085 703;" xml:space="preserve">
<style type="text/css">
	.st0{fill:none;stroke:#000000;stroke-width:8;stroke-miterlimit:10;}
</style>
<g>
	<polyline class="st0" points="800.2,475.3 781,475.3 781,696.4 1008.4,696.4 1008.4,475.3 845.2,475.3 	"/>
	<polyline class="st0" points="801.1,236.9 781,236.9 781,9.4 1008.4,9.4 1008.4,236.9 843.3,236.9 	"/>
	<polyline class="st0" points="582.8,526.7 563.6,526.7 563.6,696.4 781,696.4 781,526.7 626,526.7 	"/>
	<polyline class="st0" points="502.1,526.7 346.2,526.7 346.2,696.4 563.6,696.4 563.6,526.7 545.2,526.7 	"/>
	<polyline class="st0" points="626.9,179.1 781,179.1 781,9.4 563.6,9.4 563.6,179.1 582.8,179.1 	"/>
	<polyline class="st0" points="545.7,179.1 563.6,179.1 563.6,9.4 346.2,9.4 346.2,179.1 501.7,179.1 	"/>
	<polyline class="st0" points="692.9,402.9 692.9,437.1 497.5,437.1 	"/>
	<polyline class="st0" points="454.9,437.1 435.2,437.1 435.2,271.7 692.9,271.7 692.9,306.6 	"/>
	<polyline class="st0" points="222.4,366.2 346.2,366.2 346.2,696.4 39,696.4 39,427.6 	"/>
	<polyline class="st0" points="39,379.9 39,366.2 180.2,366.2 	"/>
	<polyline class="st0" points="322.4,285.5 346.2,285.5 346.2,9.4 39,9.4 39,90.4 	"/>
	<polyline class="st0" points="39,138.7 39,246.9 160,246.9 160,285.5 239.8,285.5 	"/>
	<polyline class="st0" points="160,313.9 160,246.9 39,246.9 39,366.2 160,366.2 160,354.2 	"/>
	<rect x="39" y="163.5" class="st0" width="137.6" height="83.5"/>
	<polyline class="st0" points="1008.4,408.4 1008.4,696.4 39,696.4 39,429.5 	"/>
	<polyline class="st0" points="1008.4,317.6 1008.4,9.4 346.2,9.4 39,9.4 39,90.4 	"/>
	<polyline class="st0" points="39,138.7 39,246.9 39,379.9 	"/>
</g>
</svg>
