<?xml version="1.0" encoding="utf-8"?>
<!-- Generator: Adobe Illustrator 24.0.0, SVG Export Plug-In . SVG Version: 6.00 Build 0)  -->
<svg version="1.1" id="Layer_1_xA0_Image_1_" xmlns="http://www.w3.org/2000/svg" xmlns:xlink="http://www.w3.org/1999/xlink"
	 x="0px" y="0px" viewBox="0 0 1085 703" style="enable-background:new 0 0 1085 703;" xml:space="preserve">
<style type="text/css">
	.st0{fill:none;stroke:#000000;stroke-width:8;stroke-miterlimit:10;}
</style>
<g>
	<polyline class="st0" points="247.1,230.4 266.4,230.4 266.4,9.4 39,9.4 39,230.4 202.2,230.4 	"/>
	<polyline class="st0" points="246.2,468.9 266.4,468.9 266.4,696.4 39,696.4 39,468.9 204,468.9 	"/>
	<polyline class="st0" points="464.5,179.1 483.8,179.1 483.8,9.4 266.4,9.4 266.4,179.1 421.4,179.1 	"/>
	<polyline class="st0" points="545.2,179.1 701.2,179.1 701.2,9.4 483.8,9.4 483.8,179.1 502.1,179.1 	"/>
	<polyline class="st0" points="420.5,526.6 266.4,526.6 266.4,696.3 483.8,696.3 483.8,526.6 464.5,526.6 	"/>
	<polyline class="st0" points="501.7,526.6 483.8,526.6 483.8,696.3 701.2,696.3 701.2,526.6 545.7,526.6 	"/>
	<polyline class="st0" points="354.5,302.9 354.5,268.7 549.8,268.7 	"/>
	<polyline class="st0" points="592.5,268.7 612.2,268.7 612.2,434 354.5,434 354.5,399.2 	"/>
	<polyline class="st0" points="825,339.6 701.2,339.6 701.2,9.4 1008.4,9.4 1008.4,278.1 	"/>
	<polyline class="st0" points="1008.4,325.8 1008.4,339.6 867.2,339.6 	"/>
	<polyline class="st0" points="725,420.3 701.2,420.3 701.2,696.4 1008.4,696.4 1008.4,615.3 	"/>
	<polyline class="st0" points="1008.4,567 1008.4,458.8 887.4,458.8 887.4,420.3 807.6,420.3 	"/>
	<polyline class="st0" points="887.4,391.9 887.4,458.8 1008.4,458.8 1008.4,339.6 887.4,339.6 887.4,351.5 	"/>
	<rect x="870.8" y="458.8" class="st0" width="137.6" height="83.5"/>
	<polyline class="st0" points="39,297.4 39,9.4 1008.4,9.4 1008.4,276.3 	"/>
	<polyline class="st0" points="39,388.2 39,696.4 701.2,696.4 1008.4,696.4 1008.4,615.3 	"/>
	<polyline class="st0" points="1008.4,567 1008.4,458.8 1008.4,325.8 	"/>
</g>
</svg>
