<?xml version="1.0" encoding="utf-8"?>
<!-- Generator: Adobe Illustrator 24.0.0, SVG Export Plug-In . SVG Version: 6.00 Build 0)  -->
<svg version="1.1" id="Layer_1" xmlns="http://www.w3.org/2000/svg" xmlns:xlink="http://www.w3.org/1999/xlink" x="0px" y="0px"
	 viewBox="0 0 100 100" style="enable-background:new 0 0 100 100;" xml:space="preserve">
<style type="text/css">
	.st0{display:none;}
	.st1{display:inline;}
	.st2{fill:#7E7E7E;}
</style>
<g class="st0">
	<path class="st1" d="M-43.1,68.6C-49.8,57.7-56.6,47-60.9,35.1c-3.3-9.1,0.7-22.5,13.5-25.4c11.9-2.6,22.4,4.9,23.6,17
		c0.4,3.8-0.4,7.3-1.9,10.7C-30.2,48.2-36.2,58.2-42.4,68C-42.5,68.2-42.7,68.3-43.1,68.6z M-36.3,28.8c-0.1-3.6-3-6.5-6.6-6.5
		c-3.6,0-6.7,3.1-6.6,6.7c0.1,3.7,3.2,6.6,6.8,6.5C-39.1,35.3-36.2,32.3-36.3,28.8z"/>
	<path class="st1" d="M-34.2,57.1c0.7-0.2,1.4-0.6,2-0.5c4.4,0.5,8.7,1.3,12.6,3.4c6.6,3.6,7,10,1.1,14.6c-4.1,3.1-8.9,4.5-13.8,5.4
		c-9.5,1.6-19,1.4-28.2-1.8c-2.6-0.9-5.2-2.3-7.4-4c-5.4-4.2-4.9-10.4,1-13.9c4.1-2.4,8.7-3.2,13.4-3.8c0.6-0.1,1.2,0.4,1.8,1
		c-2,0.4-4.1,0.7-6,1.3c-1.9,0.6-3.9,1.3-5.6,2.3c-3.9,2.3-4.2,5.8-0.4,8.3c2.6,1.7,5.7,3,8.8,3.8c9.6,2.3,19.2,2.1,28.5-1.3
		c1.9-0.7,3.7-1.8,5.2-3c2.7-2.2,2.5-5.1-0.3-7.1c-3-2.2-6.5-3-10.1-3.7c-0.8-0.1-1.5-0.3-2.3-0.4C-34.1,57.5-34.1,57.3-34.2,57.1z"
		/>
</g>
<g>
	<path class="st2" d="M79.5,33.7c-0.8-5.4-3-10.1-6.6-14.2c-6-6.9-13.7-10.2-22.9-10.3c-2,0.2-4,0.3-6,0.7
		c-14.3,2.5-24.9,15.6-23.9,30.4c0.5,6.1,2.5,11.5,6.4,16.2c5.7,7,11,14.3,15.5,22.2c2,3.5,3.8,7.1,5.6,10.7c0.5,1,1.3,1.5,2.3,1.5
		c1,0,1.8-0.5,2.3-1.5c0.1-0.2,0.2-0.4,0.3-0.6C58,77.4,64.8,67,72.8,57.4C78.5,50.5,80.9,42.6,79.5,33.7z M70.4,38.6
		C70.3,49.9,61.2,59,50,59c-11.2,0-20.4-9.2-20.3-20.4c0-11.2,9.3-20.4,20.4-20.3C61.3,18.3,70.4,27.5,70.4,38.6z"/>
	<path class="st2" d="M61.6,46.4L61.6,46.4c0,2.7-2.2,4.9-4.9,4.9H43.3c-2.7,0-4.9-2.2-4.9-4.9v0c0-3.6,2.7-6.9,7.3-8.8l1.6-0.7
		c-1.4-1.2-2.3-3.4-2.3-5.9c0-3.9,2.3-7,5.1-7c2.8,0,5.1,3.1,5.1,7c0,2.5-0.9,4.6-2.3,5.9l1.6,0.7C58.8,39.5,61.6,42.8,61.6,46.4z"
		/>
</g>
</svg>
