<?xml version="1.0" encoding="utf-8"?>
<!-- Generator: Adobe Illustrator 24.1.2, SVG Export Plug-In . SVG Version: 6.00 Build 0)  -->
<svg version="1.1" xmlns="http://www.w3.org/2000/svg" xmlns:xlink="http://www.w3.org/1999/xlink" x="0px" y="0px"
	 viewBox="0 0 1085 703" style="enable-background:new 0 0 1085 703;" xml:space="preserve">
<style type="text/css">
	.st0{display:none;}
	.st1{display:inline;}
</style>
<g id="Layer_1">
	<g id="Layer_1_xA0_Image_1_" class="st0">
		<g class="st1">
			<polygon points="1012.4,408.4 1012.4,700.4 35,700.4 35,429.5 43,429.5 43,692.4 342.2,692.4 342.2,370.2 222.4,370.2 
				222.4,362.2 350.2,362.2 350.2,522.7 502.1,522.7 502.1,530.7 350.2,530.7 350.2,692.4 559.6,692.4 559.6,530.7 545.2,530.7 
				545.2,522.7 583.8,522.7 583.8,530.7 567.6,530.7 567.6,692.4 777,692.4 777,530.7 626,530.7 626,522.7 777,522.7 777,471.3 
				799.6,471.3 799.6,479.3 785,479.3 785,692.4 1004.4,692.4 1004.4,479.3 845.6,479.3 845.6,471.3 1004.4,471.3 1004.4,408.4 			
				"/>
			<rect x="625.7" y="522.7" width="0.3" height="8"/>
			<polygon points="696.9,441.1 497.5,441.1 497.5,433.1 688.9,433.1 688.9,402.9 696.9,402.9 			"/>
			<polygon points="454.9,441.1 431.2,441.1 431.2,267.7 696.9,267.7 696.9,306.6 688.9,306.6 688.9,275.7 439.2,275.7 439.2,433.1 
				454.9,433.1 			"/>
			<rect x="35" y="427.6" width="8" height="1.9"/>
			<rect x="43" y="242.9" width="121" height="0.1"/>
			<path d="M156,313.9h8v-24.4h75.8v-8H164V251h16.6v-91.5H43v-20.8h-8v241.2h8v-9.7h137.2v-8H164v-8h-8v8H43V250.9h113V313.9z
				 M43,243v-75.5h129.6V243H43z"/>
			<rect x="43" y="242.9" width="121" height="0.1"/>
			<path d="M43,250.9L43,250.9l113,0.1v-0.1H43z"/>
			<path d="M35,5.4v85h8v-77h299.2v268.1h-19.8v8h27.8V183.1h151.5v-8H350.2V13.4h209.4v161.7h-13.9v8H777v57.8h24.1v-8H785V13.4
				h219.4v219.5H843.3v8h161.1v76.7h8V5.4H35z M777,175.1H567.6V13.4H777V175.1z"/>
		</g>
	</g>
	<path d="M843.9,295.7L843.9,295.7l140.3,0.1v-0.1H843.9z"/>
	<path d="M843.9,305.7L843.9,305.7l140.3,0.1v-0.1H843.9z"/>
	<path d="M90.8,56.3v373.3h10V293.3h349.5v-78.2h383.6v273.6H496v148H100.8V500.6h-10v146.1h903.4V56.3H90.8z M440.3,283.4H100.8
		V66.3h339.5V283.4z M637.1,205.1H450.3V66.3h186.8V205.1z M647.1,205.1V66.3h186.8v138.8H647.1z M506,636.7v-138h249.5v138H506z
		 M984.2,636.7H765.5v-138h218.8L984.2,636.7L984.2,636.7z M984.2,488.7H843.9v-183h140.3V488.7z M984.2,295.8H843.9V66.3h140.3
		V295.8z"/>
</g>
<g id="Layer_2">
	<g>
		<path d="M546.1,569.8c0,10.6,8.6,19.2,19.2,19.2c10.6,0,32.4-19.2,32.4-19.2s-21.8-19.2-32.4-19.2
			C554.8,550.5,546.1,559.2,546.1,569.8z M581.7,569.8c0,9-7.3,16.4-16.4,16.4c-9,0-16.4-7.3-16.4-16.4c0-9,7.4-16.4,16.4-16.4
			C574.4,553.4,581.7,560.7,581.7,569.8z"/>
		<circle cx="565.3" cy="569.8" r="14.3"/>
	</g>
	<g>
		<path d="M293.7,199.3v5.7h-39.2l4.4,9.7h-5.3l-6.3-14.5v-0.9H293.7z"/>
		<path d="M274,159.2c6.8,0,11.9,1,15.3,3s5.1,5.1,5.1,9.4c0,4.1-1.6,7.2-4.9,9.2c-3.2,2-8.1,3.1-14.6,3.2H267c-6.8,0-11.8-1-15.1-3
			s-5-5.1-5-9.4c0-4.2,1.6-7.3,4.7-9.3c3.2-2,7.9-3.1,14.3-3.2h8.1V159.2z M265.9,164.8c-4.9,0-8.5,0.5-10.8,1.6s-3.5,2.8-3.5,5.2
			c0,2.3,1.1,4,3.4,5.1c2.3,1.1,5.7,1.6,10.3,1.7h9.5c4.9,0,8.5-0.6,11-1.7c2.4-1.1,3.7-2.8,3.7-5.1s-1.2-4-3.5-5.1
			s-5.8-1.6-10.6-1.7H265.9z"/>
		<path d="M293.7,135v5.7h-39.2l4.4,9.7h-5.3l-6.3-14.5V135H293.7z"/>
	</g>
	<g>
		<path d="M566.8,164.7v5.7h-39.2l4.4,9.7h-5.3l-6.3-14.5v-0.9H566.8z"/>
		<path d="M547.1,124.6c6.8,0,11.9,1,15.3,3c3.4,2,5.1,5.1,5.1,9.4c0,4.1-1.6,7.2-4.9,9.2c-3.2,2-8.1,3.1-14.6,3.2h-8
			c-6.8,0-11.8-1-15.1-3s-5-5.1-5-9.4c0-4.2,1.6-7.3,4.7-9.3c3.2-2,7.9-3.1,14.3-3.2L547.1,124.6L547.1,124.6z M539.1,130.2
			c-4.9,0-8.5,0.5-10.8,1.6s-3.5,2.8-3.5,5.2c0,2.3,1.1,4,3.4,5.1c2.3,1.1,5.7,1.6,10.3,1.7h9.5c4.9,0,8.5-0.6,11-1.7
			c2.4-1.1,3.7-2.8,3.7-5.1s-1.2-4-3.5-5.1s-5.8-1.6-10.6-1.7H539.1z"/>
		<path d="M566.8,91.3v25.9h-4.2L545.1,104c-2.7-2-4.9-3.4-6.6-4.1c-1.7-0.8-3.6-1.2-5.5-1.2c-2.5,0-4.4,0.6-6,1.7
			c-1.5,1.1-2.3,2.6-2.3,4.5c0,2.4,0.8,4.2,2.4,5.5s4,1.9,7,1.9v5.6c-4.3,0-7.7-1.2-10.3-3.5s-3.9-5.5-3.9-9.5
			c0-3.7,1.1-6.6,3.4-8.7c2.3-2.1,5.3-3.2,9-3.2c4.6,0,10,2.4,16.2,7.2l13.5,10.3V91.3H566.8z"/>
	</g>
	<g>
		<path d="M763.6,163.8v5.7h-39.2l4.4,9.7h-5.3l-6.3-14.5v-0.9H763.6z"/>
		<path d="M743.9,123.7c6.8,0,11.9,1,15.3,3c3.4,2,5.1,5.1,5.1,9.4c0,4.1-1.6,7.2-4.9,9.2c-3.2,2-8.1,3.1-14.6,3.2h-7.9
			c-6.8,0-11.8-1-15.1-3s-5-5.1-5-9.4c0-4.2,1.6-7.3,4.7-9.3c3.2-2,7.9-3.1,14.3-3.2h8.1V123.7z M735.9,129.3
			c-4.9,0-8.5,0.5-10.8,1.6s-3.5,2.8-3.5,5.2c0,2.3,1.1,4,3.4,5.1c2.3,1.1,5.7,1.6,10.3,1.7h9.5c4.9,0,8.5-0.6,11-1.7
			s3.7-2.8,3.7-5.1s-1.2-4-3.5-5.1s-5.8-1.6-10.6-1.7H735.9z"/>
		<path d="M737.6,109.1v-3.6c0-2.3-0.7-4.1-2.1-5.3c-1.4-1.2-3.4-1.9-5.8-1.9c-5.4,0-8.1,2.1-8.1,6.3c0,2,0.7,3.6,2.2,4.7
			s3.4,1.7,5.8,1.7v5.6c-3.7,0-6.8-1.1-9.2-3.4s-3.6-5.1-3.6-8.7s1.1-6.5,3.4-8.7c2.3-2.1,5.5-3.2,9.7-3.2c2.1,0,4.1,0.6,6,1.7
			s3.2,2.6,4.1,4.3c1.6-4.4,5.2-6.5,10.8-6.5c4.1,0,7.4,1.1,9.9,3.4c2.4,2.3,3.7,5.3,3.7,9s-1.2,6.6-3.5,8.9s-5.4,3.4-9.4,3.4v-5.6
			c2.5,0,4.4-0.6,5.9-1.8s2.2-2.8,2.2-4.9s-0.7-3.8-2.1-5c-1.4-1.2-3.6-1.9-6.5-1.9c-5.6,0-8.4,2.7-8.4,8v3.4L737.6,109.1
			L737.6,109.1z"/>
	</g>
	<g>
		<path d="M937.2,210.3v5.7H898l4.4,9.7H897l-6.3-14.5v-0.9H937.2z"/>
		<path d="M917.5,170.2c6.8,0,11.9,1,15.3,3c3.4,2,5.1,5.1,5.1,9.4c0,4.1-1.6,7.2-4.9,9.2c-3.2,2-8.1,3.1-14.6,3.2h-7.9
			c-6.8,0-11.8-1-15.1-3s-5-5.1-5-9.4c0-4.2,1.6-7.3,4.7-9.3c3.2-2,7.9-3.1,14.3-3.2h8.1V170.2z M909.4,175.9
			c-4.9,0-8.5,0.5-10.8,1.6s-3.5,2.8-3.5,5.2c0,2.3,1.1,4,3.4,5.1c2.3,1.1,5.7,1.6,10.3,1.7h9.5c4.9,0,8.5-0.6,11-1.7
			s3.7-2.8,3.7-5.1s-1.2-4-3.5-5.1s-5.8-1.6-10.6-1.7H909.4z"/>
		<path d="M921.6,141.5v-5.1h4.8v5.1h10.7v5.6h-10.7v17.5H923l-32.1-17.2v-5.9L921.6,141.5L921.6,141.5z M921.6,158.4v-11.3h-22
			L921.6,158.4z"/>
	</g>
	<g>
		<path d="M937.2,426.1v5.7H898l4.4,9.7H897l-6.3-14.5v-0.9L937.2,426.1L937.2,426.1z"/>
		<path d="M917.5,386c6.8,0,11.9,1,15.3,3c3.4,2,5.1,5.1,5.1,9.4c0,4.1-1.6,7.2-4.9,9.2c-3.2,2-8.1,3.1-14.6,3.2h-7.9
			c-6.8,0-11.8-1-15.1-3s-5-5.1-5-9.4c0-4.2,1.6-7.3,4.7-9.3c3.2-2,7.9-3.1,14.3-3.2L917.5,386L917.5,386z M909.4,391.6
			c-4.9,0-8.5,0.5-10.8,1.6s-3.5,2.8-3.5,5.2c0,2.3,1.1,4,3.4,5.1c2.3,1.1,5.7,1.6,10.3,1.7h9.5c4.9,0,8.5-0.6,11-1.7
			s3.7-2.8,3.7-5.1c0-2.3-1.2-4-3.5-5.1s-5.8-1.6-10.6-1.7H909.4z"/>
		<path d="M914,376.3l-23.1-2v-20.1h5.4v15.4l12.6,1.1c-1.3-1.9-2-4-2-6.2c0-3.6,1.4-6.4,4.2-8.5s6.6-3.1,11.3-3.1
			c4.8,0,8.5,1.1,11.3,3.4s4.1,5.3,4.1,9.2c0,3.5-1.1,6.3-3.4,8.5c-2.3,2.2-5.4,3.4-9.4,3.8v-5.3c2.6-0.3,4.6-1.1,6-2.3s2-2.8,2-4.7
			c0-2.2-0.9-3.9-2.8-5.1c-1.9-1.2-4.5-1.8-7.7-1.8c-3,0-5.5,0.7-7.4,2s-2.9,3.1-2.9,5.4c0,1.9,0.5,3.4,1.5,4.5l1.5,1.5L914,376.3z"
			/>
	</g>
	<g>
		<path d="M898,596.4v5.7h-39.2l4.4,9.7h-5.3l-6.3-14.5v-0.9H898z"/>
		<path d="M878.2,556.3c6.8,0,11.9,1,15.3,3c3.4,2,5.1,5.1,5.1,9.4c0,4.1-1.6,7.2-4.9,9.2c-3.2,2-8.1,3.1-14.6,3.2h-7.9
			c-6.8,0-11.8-1-15.1-3s-5-5.1-5-9.4c0-4.2,1.6-7.3,4.7-9.3c3.2-2,7.9-3.1,14.3-3.2L878.2,556.3L878.2,556.3z M870.2,561.9
			c-4.9,0-8.5,0.5-10.8,1.6s-3.5,2.8-3.5,5.2c0,2.3,1.1,4,3.4,5.1c2.3,1.1,5.7,1.6,10.3,1.7h9.5c4.9,0,8.5-0.6,11-1.7
			s3.7-2.8,3.7-5.1s-1.2-4-3.5-5.1s-5.8-1.6-10.6-1.7H870.2z"/>
		<path d="M851.7,529.3h5v0.9c0.1,3.8,1.4,6.7,3.8,8.8s6.1,3.3,11,3.7c-2.6-2.1-3.9-4.7-3.9-7.9c0-3.4,1.4-6.1,4.2-8.1s6.5-3,11-3
			c4.9,0,8.7,1.1,11.5,3.3s4.2,5.2,4.2,8.9c0,3.8-1.7,6.8-5,9.1s-7.7,3.4-13.3,3.4h-2.3c-6.4,0-11.4-0.7-15.2-2.1
			c-3.8-1.4-6.6-3.4-8.4-6.1c-1.8-2.7-2.8-6-2.8-10v-0.9H851.7z M872.5,535.7c0,1.5,0.6,2.9,1.7,4.2c1.2,1.3,2.6,2.2,4.5,2.8h2.3
			c3.8,0,6.8-0.7,9.2-2s3.5-3,3.5-4.9c0-2.1-1-3.7-2.9-4.9s-4.5-1.8-7.7-1.8c-3.1,0-5.7,0.6-7.7,1.8
			C873.5,532.1,872.5,533.7,872.5,535.7z"/>
	</g>
	<g>
		<path d="M654,596.7v5.7h-39.5l4.4,9.8h-5.4l-6.4-14.6v-0.9H654z"/>
		<path d="M634.1,556.3c6.9,0,12,1,15.4,3s5.1,5.2,5.1,9.4s-1.6,7.3-4.9,9.3s-8.2,3.1-14.7,3.2h-8c-6.8,0-11.9-1-15.2-3
			s-5-5.2-5-9.4s1.6-7.3,4.8-9.3s8-3.1,14.4-3.2H634.1z M626.1,562c-4.9,0-8.6,0.5-10.9,1.6s-3.5,2.8-3.5,5.2c0,2.3,1.1,4,3.4,5.1
			c2.3,1.1,5.8,1.7,10.4,1.7h9.6c4.9,0,8.6-0.6,11.1-1.7c2.5-1.1,3.7-2.9,3.7-5.2s-1.2-4-3.5-5.1s-5.9-1.7-10.7-1.7h-9.6V562z"/>
		<path d="M610.8,523.2l43.3,16v5.9l-41.7-16v20.8h-4.9v-26.7H610.8z"/>
	</g>
</g>
</svg>
